<?xml version="1.0" encoding="UTF-8" standalone="no"?>
<!-- Created with Inkscape (http://www.inkscape.org/) -->

<svg
   xmlns:dc="http://purl.org/dc/elements/1.1/"
   xmlns:cc="http://creativecommons.org/ns#"
   xmlns:rdf="http://www.w3.org/1999/02/22-rdf-syntax-ns#"
   xmlns:svg="http://www.w3.org/2000/svg"
   xmlns="http://www.w3.org/2000/svg"
   xmlns:sodipodi="http://sodipodi.sourceforge.net/DTD/sodipodi-0.dtd"
   xmlns:inkscape="http://www.inkscape.org/namespaces/inkscape"
   width="500"
   height="500"
   viewBox="0 0 132.29167 132.29167"
   version="1.1"
   id="svg8"
   inkscape:version="0.92.3 (2405546, 2018-03-11)"
   sodipodi:docname="timer.svg">
  <defs
     id="defs2" />
  <sodipodi:namedview
     id="base"
     pagecolor="#ffffff"
     bordercolor="#666666"
     borderopacity="1.0"
     inkscape:pageopacity="0.0"
     inkscape:pageshadow="2"
     inkscape:zoom="0.44884708"
     inkscape:cx="-167.17986"
     inkscape:cy="308.7478"
     inkscape:document-units="px"
     inkscape:current-layer="layer1"
     showgrid="true"
     units="px"
     fit-margin-top="0"
     fit-margin-left="0"
     fit-margin-right="0"
     fit-margin-bottom="0"
     objecttolerance="20"
     inkscape:snap-path-clip="true"
     inkscape:snap-path-mask="true"
     inkscape:window-width="1368"
     inkscape:window-height="849"
     inkscape:window-x="-8"
     inkscape:window-y="-8"
     inkscape:window-maximized="1"
     inkscape:snap-bbox="true"
     inkscape:bbox-nodes="true"
     inkscape:snap-smooth-nodes="true"
     inkscape:measure-start="420,540"
     inkscape:measure-end="80,-60">
    <inkscape:grid
       type="xygrid"
       id="grid23" />
  </sodipodi:namedview>
  <metadata
     id="metadata5">
    <rdf:RDF>
      <cc:Work
         rdf:about="">
        <dc:format>image/svg+xml</dc:format>
        <dc:type
           rdf:resource="http://purl.org/dc/dcmitype/StillImage" />
        <dc:title></dc:title>
      </cc:Work>
    </rdf:RDF>
  </metadata>
  <g
     inkscape:label="Layer 1"
     inkscape:groupmode="layer"
     id="layer1"
     transform="translate(0,-164.70832)">
    <g
       id="g4041"
       inkscape:export-filename="C:\Users\jpiam\Documents\GitHub\PWA_Tomato\images\main\timer_current.png"
       inkscape:export-xdpi="196.608"
       inkscape:export-ydpi="196.608">
      <path
         id="path3711"
         d="M 66.145835,164.70832 A 66.145835,66.145827 0 0 0 0,230.85415 66.145835,66.145827 0 0 0 66.145835,296.99999 66.145835,66.145827 0 0 0 132.29167,230.85415 66.145835,66.145827 0 0 0 66.145835,164.70832 Z m 0,5.29167 A 60.854168,60.854163 0 0 1 127,230.85415 60.854168,60.854163 0 0 1 66.145835,291.70832 60.854168,60.854163 0 0 1 5.2916668,230.85415 60.854168,60.854163 0 0 1 66.145835,169.99999 Z"
         style="fill:#3771c8;stroke-width:0.12720351"
         inkscape:connector-curvature="0" />
      <circle
         r="60.854168"
         cy="230.85416"
         cx="66.145836"
         id="path3729"
         style="fill:#ffeeaa;stroke-width:0.26458335" />
      <path
         id="rect3746-0"
         d="m 42.333334,196.45832 23.812501,34.39583 23.812501,-34.39583 z m 23.812501,34.39583 -23.812501,34.39584 h 47.625002 z"
         style="fill:#2c5aa0;fill-opacity:1;stroke-width:0.2549589"
         inkscape:connector-curvature="0" />
      <rect
         y="185.87498"
         x="37.041668"
         height="5.2916694"
         width="58.208336"
         id="rect3748-1"
         style="fill:#2c5aa0;stroke-width:0.15697624" />
      <rect
         y="270.54166"
         x="37.041668"
         height="5.2916694"
         width="58.208336"
         id="rect3748-1-0"
         style="fill:#2c5aa0;stroke-width:0.15697624" />
      <path
         id="rect3746-0-2"
         d="m 57.326219,213.65624 8.819616,13.22916 8.819616,-13.22916 z m 0,34.39583 -9.701218,14.55209 h 37.041668 l -9.701218,-14.55209 z"
         style="fill:#ffe680;fill-opacity:1;stroke-width:0.2549589"
         inkscape:connector-curvature="0" />
    </g>
    <g
       id="g3997"
       transform="translate(-190.5,-37.041668)">
      <g
         inkscape:export-ydpi="196.608"
         inkscape:export-xdpi="196.608"
         inkscape:export-filename="C:\Users\jpiam\Documents\GitHub\PWA_Tomato\images\main\timer_start.png"
         id="g3973">
        <path
           inkscape:connector-curvature="0"
           style="fill:#3771c8;stroke-width:0.12720351"
           d="M 66.145835,164.70832 A 66.145835,66.145827 0 0 0 0,230.85415 66.145835,66.145827 0 0 0 66.145835,296.99999 66.145835,66.145827 0 0 0 132.29167,230.85415 66.145835,66.145827 0 0 0 66.145835,164.70832 Z m 0,5.29167 A 60.854168,60.854163 0 0 1 127,230.85415 60.854168,60.854163 0 0 1 66.145835,291.70832 60.854168,60.854163 0 0 1 5.2916668,230.85415 60.854168,60.854163 0 0 1 66.145835,169.99999 Z"
           id="path3711-7" />
        <circle
           style="fill:#ffeeaa;stroke-width:0.26458335"
           id="path3729-2"
           cx="66.145836"
           cy="230.85416"
           r="60.854168" />
        <path
           inkscape:connector-curvature="0"
           style="fill:#2c5aa0;fill-opacity:1;stroke-width:0.2549589"
           d="m 42.333334,196.45832 23.812501,34.39583 23.812501,-34.39583 z m 23.812501,34.39583 -23.812501,34.39584 h 47.625002 z"
           id="rect3746-0-26" />
        <rect
           style="fill:#2c5aa0;stroke-width:0.15697624"
           id="rect3748-1-08"
           width="58.208336"
           height="5.2916694"
           x="37.041668"
           y="185.87498" />
        <rect
           style="fill:#2c5aa0;stroke-width:0.15697624"
           id="rect3748-1-0-8"
           width="58.208336"
           height="5.2916694"
           x="37.041668"
           y="270.54166" />
        <path
           style="fill:#ffe680;fill-opacity:1;stroke-width:0.20207888"
           d="M 47.625001,199.10415 66.145835,226.8854 84.666669,199.10415 Z"
           id="path3926"
           inkscape:connector-curvature="0" />
      </g>
    </g>
  </g>
</svg>
